<svg id="draw.id" overflow="visible" v:layers="{&quot;default&quot;:{&quot;name&quot;:&quot;Default&quot;,&quot;print&quot;:1,&quot;display&quot;:1,&quot;publish&quot;:1}}" v:ver="5" x="500.5" xmlns="http://www.w3.org/2000/svg" xmlns:v="http://vecta.io" xmlns:xlink="http://www.w3.org/1999/xlink" y="500.5" v:stencils="{&quot;0&quot;:{&quot;id&quot;:&quot;stencil_0&quot;,&quot;expand&quot;:1,&quot;show_name&quot;:1},&quot;1&quot;:{&quot;id&quot;:&quot;stencil_25&quot;,&quot;expand&quot;:1,&quot;show_name&quot;:1}}"><style xmlns="http://www.w3.org/1999/xhtml"><![CDATA[#draw\.id{stroke:#000;stroke-linecap:round;stroke-linejoin:round;fill:#fff;fill-rule:evenodd;font-family:Roboto;font-size:14px;text-anchor:middle;}#draw\.id text{paint-order:stroke;white-space:pre;}#draw\.id .Text\.cls{stroke:none;}]]></style><defs><style type="text/css">@import url('/fonts/roboto-condensed.css');@import url('/fonts/roboto.css');@import url('/fonts/cousine.css');@import url('/fonts/anonymous-pro.css');@import url('/fonts/lato.css');@import url('/fonts/open-sans.css');</style><linearGradient id="L00100100000aaff10000387f.grad" x1="0%" y1="0%" x2="100%" y2="100%"><stop offset="0%" stop-color="#00aaff"/><stop offset="100%" stop-color="#00387f"/></linearGradient><linearGradient id="L0010010000EDA7410000F076.grad" x1="0%" y1="0%" x2="100%" y2="100%"><stop offset="0%" stop-color="#0EDA74"/><stop offset="100%" stop-color="#00F076"/></linearGradient><linearGradient id="L044100560E12553100FE3A44.grad" x1="0%" y1="44%" x2="100%" y2="56%"><stop offset="0%" stop-color="#E12553"/><stop offset="100%" stop-color="#FE3A44"/></linearGradient><linearGradient id="L044100560ca1c4797e4010d.grad" x1="0%" y1="44%" x2="100%" y2="56%"><stop offset="0%" stop-color="#ca1c47"/><stop offset="97%" stop-color="#e4010d"/></linearGradient><linearGradient id="L050100505300D9FF10000C3FF.grad" x1="0%" y1="50%" x2="100%" y2="50%"><stop offset="53%" stop-color="#00D9FF"/><stop offset="100%" stop-color="#00C3FF"/></linearGradient><linearGradient id="L050100505300c3e610000b0e6.grad" x1="0%" y1="50%" x2="100%" y2="50%"><stop offset="53%" stop-color="#00c3e6"/><stop offset="100%" stop-color="#00b0e6"/></linearGradient><linearGradient id="L083100170FFC10064FFDB00.grad" x1="0%" y1="83%" x2="100%" y2="17%"><stop offset="0%" stop-color="#FFC100"/><stop offset="64%" stop-color="#FFDB00"/></linearGradient><linearGradient id="L089100110e6ac0063e6c700.grad" x1="0%" y1="89%" x2="100%" y2="11%"><stop offset="0%" stop-color="#e6ac00"/><stop offset="63%" stop-color="#e6c700"/></linearGradient><linearGradient x1="50%" y1="0%" x2="50%" y2="100%" id="L50050100029ABE24828A9E16623A2DC801A96D4920E85C91000071BC.grad"><stop stop-color="#29ABE2" offset="0%"/><stop stop-color="#28A9E1" offset="48%"/><stop stop-color="#23A2DC" offset="66%"/><stop stop-color="#1A96D4" offset="80%"/><stop stop-color="#0E85C9" offset="92%"/><stop stop-color="#0071BC" offset="100%"/></linearGradient><linearGradient id="L500501000FFE052100FFC331.grad" x1="50%" y1="0%" x2="50%" y2="100%"><stop offset="0%" stop-color="#FFE052"/><stop offset="100%" stop-color="#FFC331"/></linearGradient><linearGradient id="L520481000387EB8100366994.grad" x1="52%" y1="0%" x2="48%" y2="100%"><stop offset="0%" stop-color="#387EB8"/><stop offset="100%" stop-color="#366994"/></linearGradient></defs><title xmlns="http://www.w3.org/1999/xhtml">demo</title><desc xmlns="http://www.w3.org/1999/xhtml"></desc><svg height="406" id="larqbblgo8" overflow="visible" v:setup="{&quot;paper&quot;:&quot;CUSTOM&quot;,&quot;unit&quot;:&quot;px&quot;,&quot;scale&quot;:{&quot;from&quot;:&quot;1&quot;,&quot;to&quot;:&quot;1&quot;},&quot;width&quot;:&quot;306 px&quot;,&quot;height&quot;:&quot;406 px&quot;,&quot;margin&quot;:{&quot;top&quot;:&quot;0&quot;,&quot;bottom&quot;:&quot;0&quot;,&quot;left&quot;:&quot;0&quot;,&quot;right&quot;:&quot;0&quot;}}" viewBox="0 0 306 406" width="306"><g id="lasjc4wns9" class="Group.cls" transform="translate(-5 5)" v:abox="{&quot;x&quot;:-5,&quot;y&quot;:5,&quot;width&quot;:210,&quot;height&quot;:170.00003747387873}"><g class="Prim.cls"><g id="lasjc4scr9" transform="translate(104.94291517469618 118.34220677099974)" class=""><path d="M 0 50.5991 L 30.1977 33.7046 L 30.1977 0 L 0 16.8477 L 0 50.5991 Z" fill="#ffffff" fill-opacity="1"/></g><g id="lasjc4sera" transform="translate(74.80229356553819 101.61655903506016)" class=""><path d="M 0 50.4208 L 30.1595 67.2872 L 30.1595 33.5828 L 0 16.7537 L 0 50.4208 Z M 60.1294 16.7258 L 30.1595 0 L 0.1904 16.7258 L 30.1595 33.4796 L 60.1294 16.7258 Z" fill="#ffffff" fill-opacity="1"/></g><g id="lasjc4shrb" transform="translate(104.96197509765625 118.34220677099974)" class=""><path d="M 0 15.7608 L 28.2284 0.0188 L 28.1999 0 L 0 15.7608 L 0 15.7608 Z" fill="#ffffff" fill-opacity="1"/></g><g id="lasjc4sjrc" transform="translate(76.73361206054686 118.34220677099974)" class=""><path d="M 0.0285 0 L 0 0.0188 L 28.2284 15.7608 L 28.2284 15.7608 L 0.0285 0 Z" fill="#ffffff" fill-opacity="1"/></g><g id="lasjc4smrd" transform="translate(104.96197509765625 134.1029359661755)" class=""><path d="M 0 0 Z" fill="#ffffff" fill-opacity="1"/></g><g id="lasjc4ssre" transform="translate(73.88888888888889 100.4545912903612)" class=""><path d="M 61.1948 16.8102 L 31.0733 0 L 0.9514 16.8102 L 0 17.3629 L 0 52.1449 L 30.1596 69.0116 L 31.1116 69.5454 L 32.0625 69.0116 L 62.2222 52.1449 L 62.2222 17.3536 Z M 60.2432 51.0582 L 32.0244 66.8561 L 32.0244 35.2789 L 60.2812 19.5086 Z M 30.1217 66.8561 L 1.8648 51.0487 L 1.8648 19.5086 L 30.1217 35.2789 Z M 2.8734 17.9063 L 31.0733 2.155 L 59.2726 17.9063 L 59.2726 17.9063 L 31.0733 33.6482 L 31.0733 33.6482 L 2.8449 17.9063 Z" fill="#444444" fill-opacity="1"/></g><g id="lasjc4svrf" transform="translate(88.61672634548611 116.97418158925119)" class=""><path d="M 16.469 36.4219 L 32.6908 27.361 L 32.6908 9.2671 L 16.469 18.3186 L 16.469 36.4219 Z M 0 27.361 L 16.2217 36.4219 L 16.2217 18.3186 L 0 9.2671 L 0 27.361 Z M 32.519 9.0234 L 16.3451 0 L 0.1712 9.0234 L 16.3451 18.0752 L 32.519 9.0234 Z" fill="#cfcfcf" fill-opacity="1"/></g><g id="lasjc4sxrg" transform="translate(104.96197509765625 125.99779001244703)" class=""><path d="M 0 8.1335 L 14.5468 0.0188 L 14.5282 0 L 0 8.1241 L 0 8.1335 Z" fill="#96bf3d" fill-opacity="1"/></g><g id="lasjc4szrh" transform="translate(90.41488647460936 125.99779001244703)" class=""><path d="M 0.019 0 L 0 0.0188 L 14.5468 8.1335 L 14.5468 8.1241 L 0.019 0 Z" fill="#96bf3d" fill-opacity="1"/></g><g id="lasjc4t2ri" transform="translate(104.96197509765625 134.12161272174242)" class=""><path d="M 0 0 Z" fill="#96bf3d" fill-opacity="1"/></g><g id="lasjc4t4rj" transform="translate(87.55110337999132 115.74679803654405)" class=""><path d="M 33.8705 9.1735 L 17.4112 0 L 0.9514 9.1735 L 0 9.7168 L 0 29.2162 L 16.4594 38.4272 L 17.4112 38.9613 L 18.3622 38.4272 L 34.8409 29.2162 L 34.8409 9.7168 Z M 32.9188 28.1198 L 18.3622 36.2722 L 18.3622 20.0053 L 32.938 11.8719 Z M 16.4594 36.2722 L 1.8838 28.1198 L 1.8838 11.8719 L 16.4594 20.0053 Z M 2.883 10.251 L 17.4112 2.155 L 31.939 10.2603 L 31.939 10.2603 L 17.4112 18.3751 L 17.4112 18.3751 L 2.8637 10.2698 Z" fill="#ffffff" fill-opacity="1"/></g><g id="lasjc4tark" transform="translate(38.88888888888888 0.000025707084984443222)" class=""><path d="M 118.942 49.0636 C 104.9417 29.9497 85.5938 18.1227 64.2284 18.1227 C 43.6693 18.0869 23.9498 29.2581 9.448 49.1551 L 0 36.425 C 16.993 13.0716 40.1171 -0.0425 64.2284 0.0001 C 89.2635 0.0001 111.9293 13.8532 128.3332 36.2488 L 118.9466 49.0636 Z" stroke="none" fill="#9b9b9a" fill-rule="nonzero" fill-opacity="1"/></g><g id="lasjc4terl" transform="translate(58.11531914605033 36.42480134839838)" class=""><path d="M 9.3864 38.8978 C 18.6093 26.0761 31.4551 18.1196 45.6589 18.1196 C 59.528 18.1196 72.0988 25.704 81.2722 37.9975 L 90.6486 25.1696 C 79.0764 9.6078 63.1877 0 45.6589 0 C 27.7879 0 11.6267 9.98 0 26.0828 L 9.3864 38.8978 Z" stroke="none" fill="#9b9b9a" fill-rule="nonzero" fill-opacity="1"/></g><g id="lasjc4tgrm" transform="translate(76.82392713758681 72.48407642296408)" class=""><path d="M 43.7927 27.5715 C 39.2722 21.6152 33.2326 18.2915 26.9501 18.3022 C 20.0766 18.3022 13.8664 22.1988 9.4509 28.4682 L 0 15.5618 C 6.8272 5.9644 16.3545 0 26.9528 0 C 36.7858 -0.0177 46.2299 5.2462 53.244 14.6553 L 43.798 27.5715 Z" stroke="none" fill="#9b9b9a" fill-rule="nonzero" fill-opacity="1"/></g><g id="lasjc4tjrn" transform="translate(38.88888888888888 0.000025707084984443222)" class=""><path d="M 118.942 49.0636 C 104.9417 29.9497 85.5938 18.1227 64.2284 18.1227 C 43.6693 18.0869 23.9498 29.2581 9.448 49.1551 L 0 36.425 C 16.993 13.0716 40.1171 -0.0425 64.2284 0.0001 C 89.2635 0.0001 111.9293 13.8532 128.3332 36.2488 L 118.9466 49.0636 Z" fill="none" stroke-width="4.1667" fill-opacity="1"/></g><g id="lasjc4tpro" transform="translate(58.11531914605033 36.42480134839838)" class=""><path d="M 9.3864 38.8978 C 18.6093 26.0761 31.4551 18.1196 45.6589 18.1196 C 59.528 18.1196 72.0988 25.704 81.2722 37.9975 L 90.6486 25.1696 C 79.0764 9.6078 63.1877 0 45.6589 0 C 27.7879 0 11.6267 9.98 0 26.0828 L 9.3864 38.8978 Z" fill="none" stroke-width="4.1667" fill-opacity="1"/></g><g id="lasjc4trrp" transform="translate(76.82392713758681 72.48407642296408)" class=""><path d="M 43.7927 27.5715 C 39.2722 21.6152 33.2326 18.2915 26.9501 18.3022 C 20.0766 18.3022 13.8664 22.1988 9.4509 28.4682 L 0 15.5618 C 6.8272 5.9644 16.3545 0 26.9528 0 C 36.7858 -0.0177 46.2299 5.2462 53.244 14.6553 L 43.798 27.5715 Z" fill="none" stroke-width="4.1667" fill-opacity="1"/></g></g></g><g id="lasjfh4m10k" transform="translate(159.9999 70) rotate(180 15.000049999999739 45)" class="" v:formula="{&quot;angle&quot;:&quot;&quot;}"><path d="M 7.9122 18.5458 L 7.9122 29.979 C 7.9122 36.5205 5.0771 39.8234 0 39.8234 L 0 49.6688 C 5.6705 49.6688 7.9122 52.9708 7.9122 58.9413 L 7.9122 71.4542 C 7.9122 77.9959 9.6263 82.3786 12.4615 85.1094 C 15.8899 88.4122 21.4945 90 30.0001 90 L 30.0001 80.1555 C 27.1646 80.1555 24.9229 79.5835 23.2086 77.9959 C 22.0879 76.9159 21.4945 74.1851 21.4945 70.8822 L 21.4945 60.529 C 21.4945 52.3364 18.659 46.8737 13.5822 44.714 L 13.5822 44.714 C 19.2528 42.5552 21.4945 37.6004 21.4945 29.471 L 21.4945 18.5458 C 21.4945 12.5763 24.3295 9.8445 30.0001 9.8445 L 30.0001 0 C 21.4945 0 15.8239 1.651 12.4615 4.8906 C 9.6263 7.1136 7.9122 12.0042 7.9122 18.5458 Z" fill="#000000" stroke="none"/></g><g id="lasjft3q10m" transform="translate(5 70)" class=""><path d="M 7.9122 19.5761 L 7.9122 31.6445 C 7.9122 38.5494 5.0771 42.0358 0 42.0358 L 0 52.4282 C 5.6705 52.4282 7.9122 55.9136 7.9122 62.2158 L 7.9122 75.4239 C 7.9122 82.329 9.6263 86.9552 12.4615 89.8377 C 15.8898 93.324 21.4944 95 30 95 L 30 84.6086 C 27.1645 84.6086 24.9228 84.0048 23.2085 82.329 C 22.0878 81.189 21.4944 78.3065 21.4944 74.8201 L 21.4944 63.8917 C 21.4944 55.244 18.6589 49.4778 13.5822 47.1981 L 13.5822 47.1981 C 19.2527 44.9194 21.4944 39.6893 21.4944 31.1083 L 21.4944 19.5761 C 21.4944 13.275 24.3294 10.3914 30 10.3914 L 30 0 C 21.4944 0 15.8238 1.7427 12.4615 5.1623 C 9.6263 7.5088 7.9122 12.6711 7.9122 19.5761 Z" fill="#000000" stroke="none"/></g></svg></svg>