<svg xmlns="http://www.w3.org/2000/svg" xmlns:xlink="http://www.w3.org/1999/xlink" width="1123" height="794" stroke="#000" stroke-linecap="round" stroke-linejoin="round" fill="#fff" fill-rule="evenodd"><path d="M299.4266 278.1299l38.8257-21.8635v-43.6176l-38.8257 21.8027v43.6784z"/><path d="M260.6744 256.2543l38.7767 21.827v-43.6177l-38.7767-21.7784v43.5691zm77.3088-43.6054l-38.5321-21.6451-38.5321 21.6451 38.5321 21.6815 38.5321-21.6815z"/><path d="M299.4511 233.0449l36.2936-20.3718-.0367-.0243-36.2569 20.3961h0z"/><path d="M263.1942 212.6488l-.0367.0243 36.2936 20.3718h0l-36.2569-20.3961z"/><path d="M299.4511 233.045z"/><path d="M338.179 211.2543l-38.7279-21.7542-38.7279 21.7542-1.2232.7154v45.0122l38.7768 21.8271 1.2233.6911 1.2232-.6911L339.5 256.9819v-45.0242zm-1.2232 44.321l-36.2814 20.4446V235.155l36.3302-20.4083zm-38.7279 20.4446l-36.3303-20.4568v-40.8164l36.3303 20.4083zm-35.0337-63.3468l36.2569-20.384 36.2569 20.384h0l-36.2569 20.3719h0l-36.2936-20.3719z" fill="#444"/><path d="M299.6102 258.0126l20.8563-11.7259v-23.4155l-20.8563 11.7138v23.4276zm-21.1744-11.7259l20.8563 11.7259V234.585l-20.8563-11.7138v23.4155zm41.8104-23.7309l-20.7951-11.6774-20.7951 11.6774 20.7951 11.7139 20.7951-11.7139z" fill="#cfcfcf"/><g fill="#96bf3d"><path d="M299.4511 233.0815l18.7034-10.5012-.0244-.0243-18.679 10.5134v.0121z"/><path d="M280.7722 222.556l-.0245.0243 18.7034 10.5012v-.0121l-18.6789-10.5134z"/><path d="M299.4511 233.0692z"/></g><path d="M320.6132 221.1615L299.4511 209.29l-21.1622 11.8715-1.2232.7033v25.2344l21.1622 11.92 1.2232.6912 1.2232-.6912 21.1865-11.92v-25.2344zm-1.2233 24.519l-18.7156 10.5497v-21.0509l18.74-10.5255zm-21.162 10.5497l-18.74-10.5497v-21.0267l18.74 10.5255zm-17.4558-33.6742l18.679-10.477 18.6789 10.4892h0l-18.6789 10.5012h0l-18.7035-10.4892z"/><g stroke="none" fill="#9b9b9a" fill-rule="nonzero"><use xlink:href="#B"/><use xlink:href="#C"/><use xlink:href="#D"/></g><g fill="none"><g stroke-width="4.1667"><use xlink:href="#B"/><use xlink:href="#C"/><use xlink:href="#D"/></g><path d="M224.5 244.5001l-50-40 50-34.9999m140 0l50 40-50 34.9999" stroke-width="7"/></g><defs ><path id="B" d="M367.4252 122.994c-18.0003-24.7356-42.8764-40.0413-70.3456-40.0413-26.4337-.0461-51.7872 14.4103-70.4318 40.1596L214.5 106.638c21.8482-30.2219 51.5793-47.1929 82.5796-47.1379 32.1877 0 61.3297 17.9277 82.4204 46.9099l-12.0684 16.584z"/><path id="C" d="M251.2881 156.9762c11.8579-16.5928 28.3737-26.8896 46.6358-26.8896 17.8316 0 33.994 9.8154 45.7885 25.7249l12.0555-16.601c-14.8784-20.1387-35.3067-32.5725-57.844-32.5725-22.9769 0-43.7557 12.9151-58.7042 33.7541l12.0684 16.5841z"/><path id="D" d="M319.5787 188.9836c-5.8121-7.7082-13.5772-12.0096-21.6548-11.9956-8.8377 0-16.8217 5.043-22.4992 13.156l-12.1511-16.7021c8.7774-12.4204 21.0273-20.1389 34.6534-20.1389 12.6428-.0232 24.7849 6.7891 33.803 18.9654l-12.1448 16.7152z"/></defs></svg>