<svg xmlns="http://www.w3.org/2000/svg" xmlns:xlink="http://www.w3.org/1999/xlink" width="1123" height="794" stroke="#000" stroke-linecap="round" stroke-linejoin="round" fill="#fff" fill-rule="evenodd">
    <path d="M289.4266 638.1298l38.8257-21.8635v-43.6176l-38.8257 21.8027v43.6784z"/>
    <path d="M250.6744 616.2542l38.7767 21.827v-43.6177l-38.7767-21.7784v43.5691zm77.3088-43.6054l-38.5321-21.6451-38.5321 21.6451 38.5321 21.6815 38.5321-21.6815z"/>
    <path d="M289.4511 593.0448l36.2936-20.3718-.0367-.0243-36.2569 20.3961h0z"/>
    <path d="M253.1942 572.6487l-.0367.0243 36.2936 20.3718h0l-36.2569-20.3961z"/>
    <path d="M289.4511 593.0449z"/>
    <path d="M328.179 571.2542L289.4511 549.5l-38.7279 21.7542-1.2232.7154v45.0122l38.7768 21.8271 1.2233.6911 1.2232-.6911L329.5 616.9818v-45.0242zm-1.2232 44.321l-36.2814 20.4446v-40.8649l36.3302-20.4083zm-38.7279 20.4446l-36.3303-20.4568v-40.8164l36.3303 20.4083zm-35.0337-63.3468l36.2569-20.384 36.2569 20.384h0l-36.2569 20.3719h0l-36.2936-20.3719z" fill="#444"/>
    <path d="M289.6102 618.0125l20.8563-11.7259v-23.4155l-20.8563 11.7138v23.4276zm-21.1744-11.7259l20.8563 11.7259v-23.4276l-20.8563-11.7138v23.4155zm41.8104-23.7309l-20.7951-11.6774-20.7951 11.6774 20.7951 11.7139 20.7951-11.7139z" fill="#cfcfcf"/>
    <g fill="#96bf3d">
        <path d="M289.4511 593.0814l18.7034-10.5012-.0244-.0243-18.679 10.5134v.0121z"/>
        <path d="M270.7722 582.5559l-.0245.0243 18.7034 10.5012v-.0121l-18.6789-10.5134z"/>
        <path d="M289.4511 593.0691z"/>
    </g>
    <path d="M310.6132 581.1614l-21.1621-11.8715-21.1622 11.8715-1.2232.7033v25.2344l21.1622 11.92 1.2232.6912 1.2232-.6912 21.1865-11.92v-25.2344zm-1.2233 24.519l-18.7156 10.5497v-21.0509l18.74-10.5255zm-21.162 10.5497l-18.74-10.5497v-21.0267l18.74 10.5255zm-17.4558-33.6742l18.679-10.477 18.6789 10.4892h0l-18.6789 10.5012h0l-18.7035-10.4892z"/>
    <g fill="#9b9b9a" fill-rule="nonzero" stroke="none">
        <use xlink:href="#B"/>
        <use xlink:href="#C"/>
        <use xlink:href="#D"/>
    </g>
    <g fill="none" stroke-width="4.1667">
        <use xlink:href="#B"/>
        <use xlink:href="#C"/>
        <use xlink:href="#D"/>
    </g>
    <path d="M166.5327 517.7442v17.4108c0 9.9623-4.3111 14.9925-12.0327 14.9925v14.9919c8.6233 0 12.0327 5.0304 12.0327 14.1229v19.0548c0 9.9632 2.6069 16.6363 6.9181 20.7959 5.2138 5.0296 13.7372 7.4484 26.6723 7.4484v-14.9933c-4.3114 0-7.7205-.8699-10.3278-3.2878-1.7042-1.6451-2.6073-5.8041-2.6073-10.8336v-15.7664c0-12.4779-4.3116-20.7967-12.0328-24.0845h0c8.624-3.2892 12.0328-10.8335 12.0328-23.2147v-16.6369c0-9.0925 4.3117-13.2516 12.9351-13.2516V489.5c-12.9351 0-21.5579 2.5148-26.6723 7.4483-4.3112 3.3852-6.9181 10.8329-6.9181 20.7959zm245.9348 9.055V508.518c0-9.9627-2.607-16.6369-6.9187-21.5697-5.2135-5.0302-13.7363-7.4483-26.6716-7.4483v14.896c8.6233 0 12.9353 4.1593 12.9353 13.2515v15.7664c0 13.2516 4.3114 20.7959 12.0317 24.0845h0c-8.6234 3.2885-12.0317 10.8336-12.0317 23.2147V587.35c0 5.0296-.9026 8.318-2.608 10.8329s-5.2137 3.2884-10.3273 3.2884v14.9934c12.9353 0 21.5575-2.5154 26.6716-7.4483 4.3117-4.159 6.9187-11.6074 6.9187-21.5697v-18.2812c0-9.9631 4.3121-14.9925 12.0325-14.9925v-14.1223c-7.7204 1.7403-12.0325-3.2884-12.0325-13.2515z" stroke="none" fill="#2a3282"/>
    <defs >
        <path id="B" d="M357.4252 482.994c-18.0003-24.7356-42.8764-40.0413-70.3456-40.0413-26.4337-.0461-51.7872 14.4103-70.4318 40.1595L204.5 466.6379c21.8482-30.2218 51.5793-47.1928 82.5796-47.1378 32.1877 0 61.3297 17.9277 82.4204 46.9099l-12.0684 16.584z"/>
        <path id="C" d="M241.2881 516.9761c11.8579-16.5928 28.3737-26.8896 46.6358-26.8896 17.8316 0 33.994 9.8154 45.7885 25.7249l12.0555-16.601c-14.8784-20.1387-35.3067-32.5725-57.844-32.5725-22.9769 0-43.7557 12.9151-58.7042 33.7541l12.0684 16.5841z"/>
        <path id="D" d="M309.5787 548.9835c-5.8121-7.7081-13.5772-12.0095-21.6548-11.9956-8.8377 0-16.8217 5.0431-22.4992 13.156l-12.1511-16.702c8.7774-12.4205 21.0273-20.139 34.6534-20.139 12.6428-.0231 24.7849 6.7892 33.803 18.9655l-12.1448 16.7151z"/>
    </defs>
</svg>