<svg xmlns="http://www.w3.org/2000/svg" xmlns:xlink="http://www.w3.org/1999/xlink" stroke="#000" stroke-linecap="round" stroke-linejoin="round" fill="#fff" fill-rule="evenodd">
    <path d="M144.4429 243.4413l30.1977-16.8945v-33.7046l-30.1977 16.8477v33.7514z"/>
    <path d="M114.3023 226.5374l30.1595 16.8664v-33.7044l-30.1595-16.8291v33.6671zm60.1294-33.695l-29.9699-16.7258-29.9691 16.7258 29.9691 16.7538 29.9699-16.7538z"/>
    <path d="M144.462 208.603l28.2284-15.742-.0285-.0188-28.1999 15.7608h0z"/>
    <path d="M116.2621 192.8422l-.0285.0188 28.2284 15.742h0l-28.1999-15.7608z"/>
    <path d="M144.462 208.6029z"/>
    <path d="M174.5837 191.7648l-30.1215-16.8102-30.1219 16.8102-.9514.5527v34.782l30.1596 16.8667.952.5338.9509-.5338 30.1597-16.8667v-34.7913zm-.9516 34.248l-28.2188 15.7979v-31.5772l28.2568-15.7703zm-30.1215 15.7979l-28.2569-15.8074v-31.5401l28.2569 15.7703zm-27.2483-48.9498l28.1999-15.7513 28.1993 15.7513h0l-28.1993 15.7419h0l-28.2284-15.7419z" fill="#444"/>
    <path d="M144.5857 227.8961l16.2218-9.0609v-18.0939l-16.2218 9.0515v18.1033zm-16.469-9.0609l16.2217 9.0609v-18.1033l-16.2217-9.0515v18.0939zm32.519-18.3376l-16.1739-9.0234-16.1739 9.0234 16.1739 9.0518 16.1739-9.0518z" fill="#cfcfcf"/>
    <g fill="#96bf3d">
        <path d="M144.462 208.6313l14.5468-8.1147-.0186-.0188-14.5282 8.1241v.0094z"/>
        <path d="M129.9339 200.4978l-.019.0188 14.5468 8.1147v-.0094l-14.5278-8.1241z"/>
        <path d="M144.462 208.6216z"/>
    </g>
    <path d="M160.9216 199.4203l-16.4593-9.1735-16.4598 9.1735-.9514.5433v19.4994l16.4594 9.211.9518.5341.951-.5341 16.4787-9.211v-19.4994zm-.9517 18.9463l-14.5566 8.1524v-16.2669l14.5758-8.1334zm-16.4594 8.1524l-14.5756-8.1524v-16.2479l14.5756 8.1334zm-13.5764-26.0212l14.5282-8.096 14.5278 8.1053h0l-14.5278 8.1148h0l-14.5475-8.1053z"/>
    <g stroke="none" fill="#9b9b9a" fill-rule="nonzero">
        <use xlink:href="#B"/>
        <use xlink:href="#C"/>
        <use xlink:href="#D"/>
    </g>
    <g fill="none" stroke-width="4.1667">
        <use xlink:href="#B"/>
        <use xlink:href="#C"/>
        <use xlink:href="#D"/>
    </g>
    <path d="M226.5877 210.9542V199.521c0-6.5415 2.8351-9.8444 7.9122-9.8444v-9.8454c-5.6705 0-7.9122-3.302-7.9122-9.2725v-12.5129c0-6.5417-1.7141-10.9244-4.5493-13.6552-3.4284-3.3028-9.033-4.8906-17.5386-4.8906v9.8445c2.8355 0 5.0772.572 6.7915 2.1596 1.1207 1.08 1.7141 3.8108 1.7141 7.1137v10.3532c0 8.1926 2.8355 13.6553 7.9123 15.815h0c-5.6706 2.1588-7.9123 7.1136-7.9123 15.243v10.9252c0 5.9695-2.835 8.7013-8.5056 8.7013V229.5c8.5056 0 14.1762-1.651 17.5386-4.8906 2.8352-2.223 4.5493-7.1136 4.5493-13.6552zM57.4122 159.0761v12.0684c0 6.9049-2.8351 10.3913-7.9122 10.3913v10.3924c5.6705 0 7.9122 3.4854 7.9122 9.7876v13.2081c0 6.9051 1.7141 11.5313 4.5493 14.4138C65.3898 232.824 70.9944 234.5 79.5 234.5v-10.3914c-2.8355 0-5.0772-.6038-6.7915-2.2796-1.1207-1.14-1.7141-4.0225-1.7141-7.5089v-10.9284c0-8.6477-2.8355-14.4139-7.9122-16.6936h0c5.6705-2.2787 7.9122-7.5088 7.9122-16.0898v-11.5322c0-6.3011 2.835-9.1847 8.5056-9.1847V139.5c-8.5056 0-14.1762 1.7427-17.5385 5.1623-2.8352 2.3465-4.5493 7.5088-4.5493 14.4138z" stroke="none" fill="#000"/>
    <defs >
        <path id="B" d="M197.3309 123.5636c-14.0003-19.1139-33.3482-30.9409-54.7136-30.9409-20.5591-.0358-40.2786 11.1354-54.7804 31.0324l-9.448-12.7301c16.993-23.3534 40.1171-36.4675 64.2284-36.4249 25.0351 0 47.7009 13.8531 64.1048 36.2487l-9.3866 12.8148z"/>
        <path id="C" d="M107.0017 149.8226c9.2229-12.8217 22.0687-20.7782 36.2725-20.7782 13.8691 0 26.4399 7.5844 35.6133 19.8779l9.3764-12.8279c-11.5722-15.5618-27.4609-25.1696-44.9897-25.1696-17.871 0-34.0322 9.98-45.6589 26.0828l9.3864 12.815z"/>
        <path id="D" d="M160.1166 174.5556c-4.5205-5.9563-10.5601-9.28-16.8426-9.2693-6.8735 0-13.0837 3.8966-17.4992 10.166l-9.4509-12.9064c6.8272-9.5974 16.3545-15.5618 26.9528-15.5618 9.833-.0177 19.2771 5.2462 26.2912 14.6553l-9.446 12.9162z"/>
    </defs>
</svg>